<svg width="30" height="24" viewBox="0 0 30 24" fill="none" xmlns="http://www.w3.org/2000/svg">
<path d="M10.1156 23.4839C11.3571 23.4839 12.3635 22.6077 12.3635 21.5269C12.3635 20.4461 11.3571 19.5699 10.1156 19.5699C8.87409 19.5699 7.86768 20.4461 7.86768 21.5269C7.86768 22.6077 8.87409 23.4839 10.1156 23.4839Z" fill="black"/>
<path d="M25.8508 23.4839C27.0923 23.4839 28.0987 22.6077 28.0987 21.5269C28.0987 20.4461 27.0923 19.5699 25.8508 19.5699C24.6093 19.5699 23.6029 20.4461 23.6029 21.5269C23.6029 22.6077 24.6093 23.4839 25.8508 23.4839Z" fill="black"/>
<path d="M29.2956 3.47243C29.1406 3.30428 28.9453 3.16886 28.7239 3.07598C28.5025 2.9831 28.2605 2.93511 28.0156 2.93548H7.02666L6.60392 0.808481C6.55884 0.581916 6.42518 0.376681 6.22642 0.228826C6.02765 0.0809706 5.77649 -4.83385e-05 5.51706 2.16371e-08H1.10341C0.810769 2.16371e-08 0.530112 0.103091 0.323182 0.286595C0.116252 0.470098 0 0.718982 0 0.978495C0 1.23801 0.116252 1.48689 0.323182 1.67039C0.530112 1.8539 0.810769 1.95699 1.10341 1.95699H4.59157L7.74043 17.7829C7.78551 18.0095 7.91917 18.2147 8.11794 18.3626C8.3167 18.5104 8.56786 18.5914 8.82729 18.5914H26.4819C26.7745 18.5914 27.0552 18.4883 27.2621 18.3048C27.469 18.1213 27.5853 17.8724 27.5853 17.6129C27.5853 17.3534 27.469 17.1045 27.2621 16.921C27.0552 16.7375 26.7745 16.6344 26.4819 16.6344H9.75278L9.36383 14.6774H26.0295C26.4121 14.677 26.7829 14.5593 27.079 14.3444C27.375 14.1294 27.5783 13.8303 27.6543 13.4977L29.6404 4.69127C29.6883 4.47814 29.6821 4.25825 29.6225 4.04747C29.5629 3.83669 29.4512 3.64029 29.2956 3.47243Z" fill="black"/>
</svg>
