<svg width="30" height="28" viewBox="0 0 30 28" fill="none" xmlns="http://www.w3.org/2000/svg">
<path d="M15 0C4.5 0 9.5625 12.775 9.5625 12.775C10.6875 14.525 12.1875 14.175 12.1875 15.4C12.1875 16.45 10.875 16.8 9.5625 16.975C7.5 16.975 5.625 16.625 3.75 19.775C2.625 21.7 2.0625 28 2.0625 28H27.75C27.75 28 27.1875 21.7 26.25 19.775C24.375 16.45 22.5 16.975 20.4375 16.8C19.125 16.625 17.8125 16.275 17.8125 15.225C17.8125 14.175 19.3125 14.525 20.4375 12.6C20.4375 12.775 25.5 0 15 0Z" fill="black"/>
</svg>
